<svg data-name="Layer 1" xmlns="http://www.w3.org/2000/svg" viewBox="0 0 166.58 98.06"><path d="m17.28 98-1.89-4.65H6.62L4.72 98H.07L9 77.12h4.21L22 98ZM11 82.6l-2.75 6.73h5.51ZM35.4 98h-8.09V77.27h8.09c6.52 0 11 4.47 11 10.31v.06c.02 5.84-4.48 10.36-11 10.36Zm6.25-10.37a6 6 0 0 0-6.25-6.25h-3.53v12.5h3.53a5.91 5.91 0 0 0 6.25-6.19ZM61 98h-8.12V77.27H61c6.52 0 11 4.47 11 10.31v.06C72 93.48 67.49 98 61 98Zm6.25-10.37A6 6 0 0 0 61 81.39h-3.55v12.5H61a5.91 5.91 0 0 0 6.25-6.19ZM78.66 98V77.27H94.3v4.06H83.2v4.21H93v4.06h-9.8v4.35h11.25V98ZM110.13 91.79h-3.46V98h-4.57V77.27h8.47c4.95 0 7.94 2.93 7.94 7.17v.06c0 4.8-3.73 7.29-8.38 7.29Zm3.76-7.26c0-2-1.42-3.14-3.7-3.14h-3.52v6.34h3.61c2.28 0 3.61-1.36 3.61-3.14ZM138.28 98l-1.9-4.65h-8.77L125.72 98h-4.65L130 77.12h4.21L143 98ZM132 82.6l-2.75 6.72h5.51ZM161.17 98l-4.44-6.64h-3.59V98h-4.56V77.27h9.48c4.89 0 7.82 2.58 7.82 6.84v.06a6.44 6.44 0 0 1-4.44 6.43l5.06 7.4Zm.09-13.65c0-2-1.36-3-3.58-3h-4.53v6h4.62c2.22 0 3.5-1.18 3.5-2.93ZM76.13.06 41.46 60.12h27.16L103.29.06H76.13z"/><path d="M128.31 60.12h-27.16l-16.27-28.2h27.16l16.27 28.2z"/></svg>